<?xml version="1.0" standalone="no"?><!-- Generator: Gravit.io --><svg xmlns="http://www.w3.org/2000/svg" xmlns:xlink="http://www.w3.org/1999/xlink" style="isolation:isolate" viewBox="0 0 64 64" width="64" height="64"><defs><clipPath id="_clipPath_Oe1TBrIppciz7nZGHVAV8kDLr6sUmOHv"><rect width="64" height="64"/></clipPath></defs><g clip-path="url(#_clipPath_Oe1TBrIppciz7nZGHVAV8kDLr6sUmOHv)"><path d=" M 1.375 32 C 1.375 15.098 15.098 1.375 32 1.375 C 48.902 1.375 62.625 15.098 62.625 32 C 62.625 48.902 48.902 62.625 32 62.625 C 15.098 62.625 1.375 48.902 1.375 32 Z " fill="none" vector-effect="non-scaling-stroke" stroke-width="1.392" stroke="rgb(30,40,44)" stroke-linejoin="miter" stroke-linecap="square" stroke-miterlimit="3"/><g id="corbeau-Eighth-note"><path d=" M 31.717 8.683 C 34.83 15.556 38.228 19.592 40.394 21.825 C 42.103 23.589 51.478 31.43 40.674 43.686 C 47.09 31.684 44.782 24.572 33.305 20.186 L 33.305 45.588 C 33.665 56.051 21.792 56.689 18.901 53.904 C 15.911 51.033 22.962 41.495 31.717 44.63 L 31.717 8.683 L 31.717 8.683 Z " fill-rule="evenodd" fill="rgb(30,40,44)" vector-effect="non-scaling-stroke" stroke-width="1.392" stroke="rgb(30,40,44)" stroke-linejoin="miter" stroke-linecap="butt" stroke-miterlimit="4"/></g></g></svg>